<?xml version="1.0" standalone="no"?><!DOCTYPE svg PUBLIC "-//W3C//DTD SVG 1.1//EN" "http://www.w3.org/Graphics/SVG/1.1/DTD/svg11.dtd"><svg class="icon" width="200px" height="198.45px" viewBox="0 0 1032 1024" version="1.1" xmlns="http://www.w3.org/2000/svg"><path fill="#2c2c2c" d="M454.260165 876.939564a364.939564 364.939564 0 0 1-305.604984-359.835514 358.559502 358.559502 0 0 1 42.108411-167.157633l44.660436 63.800623a63.800623 63.800623 0 0 0 118.031153-22.968224l35.090342-127.601246 49.12648-176.727726a63.800623 63.800623 0 0 0-63.800623-84.854828H66.990383a63.800623 63.800623 0 0 0-51.040498 105.909034l82.302803 113.565109A510.404984 510.404984 0 0 0 434.481972 1022.404984a77.83676 77.83676 0 0 0 92.510903-63.800623c9.570093-73.370717-72.73271-81.664798-72.73271-81.664797zM572.929324 147.060436a364.939564 364.939564 0 0 1 305.604984 359.835514 358.559502 358.559502 0 0 1-42.108411 167.157633l-44.660436-63.800623a63.800623 63.800623 0 0 0-118.031153 21.054205l-35.090342 127.601246-49.12648 176.727726a63.800623 63.800623 0 0 0 63.800623 84.216823H960.199106a63.800623 63.800623 0 0 0 53.592523-105.271029l-82.302804-113.565109A510.404984 510.404984 0 0 0 592.707517 1.595016a77.83676 77.83676 0 0 0-92.510903 63.800623c-9.570093 73.370717 72.73271 81.664798 72.73271 81.664797z" /></svg>