<?xml version="1.0" standalone="no"?><!DOCTYPE svg PUBLIC "-//W3C//DTD SVG 1.1//EN" "http://www.w3.org/Graphics/SVG/1.1/DTD/svg11.dtd"><svg class="icon" width="200px" height="200.00px" viewBox="0 0 1024 1024" version="1.1" xmlns="http://www.w3.org/2000/svg"><path fill="#2c2c2c" d="M853.589333 160.426667a42.666667 42.666667 0 0 0-57.386666 63.146666l42.496 38.613334c-83.925333 10.581333-152.32 34.048-210.730667 65.621333-64.469333 34.901333-115.157333 78.933333-159.530667 122.88C376.874667 354.645333 276.48 256 81.792 256a42.666667 42.666667 0 1 0 0 85.333333c158.72 0 235.946667 75.434667 327.125333 170.666667-91.136 95.232-168.405333 170.666667-327.125333 170.666667a42.666667 42.666667 0 1 0 0 85.333333c194.645333 0 295.082667-98.645333 386.645333-194.645333 44.373333 43.946667 95.061333 87.936 159.573334 122.88 58.368 31.573333 126.762667 54.997333 210.688 65.578666l-42.496 38.613334a42.666667 42.666667 0 1 0 57.386666 63.146666l117.333334-106.666666a42.666667 42.666667 0 0 0 5.205333-57.472l-97.792-128a42.666667 42.666667 0 0 0-67.797333 51.797333l41.386666 54.186667c-75.264-9.130667-134.272-29.738667-183.338666-56.277334-54.954667-29.738667-98.986667-67.712-140.8-109.141333 41.813333-41.429333 85.845333-79.402667 140.8-109.141333 49.066667-26.538667 108.074667-47.146667 183.381333-56.32l-41.429333 54.229333a42.666667 42.666667 0 0 0 67.84 51.797333l97.749333-128a42.666667 42.666667 0 0 0-5.205333-57.472l-117.333334-106.666666z"  /></svg>